<svg xmlns="http://www.w3.org/2000/svg" width="71" height="15" fill="none"><path fill="#fff" d="M6.36 1.98H1.69V12H.36V.8h6v1.18ZM5.1 8c0-1.35.3-2.39.9-3.1a3.21 3.21 0 0 1 2.6-1.1c.6 0 1.12.1 1.55.31.45.2.82.48 1.1.85.3.36.5.8.65 1.33.14.51.2 1.08.2 1.71 0 1.35-.3 2.4-.9 3.12-.6.71-1.47 1.07-2.6 1.07-.6 0-1.12-.1-1.57-.29-.43-.2-.8-.48-1.09-.84-.28-.38-.5-.82-.64-1.33-.13-.52-.2-1.1-.2-1.73Zm1.32 0c0 .4.04.8.12 1.17.08.37.21.7.38.97.17.28.4.5.67.68.28.17.62.25 1.01.25 1.45.01 2.18-1.01 2.18-3.07 0-.42-.05-.81-.13-1.18-.08-.38-.2-.7-.37-.98a1.89 1.89 0 0 0-1.68-.91C7.15 4.92 6.42 5.94 6.42 8Zm13.16 3.47c-.32.24-.7.41-1.14.53a4.87 4.87 0 0 1-2.94-.1c-.43-.2-.78-.48-1.06-.84a3.88 3.88 0 0 1-.59-1.33A7.9 7.9 0 0 1 13.67 8c0-1.35.3-2.39.9-3.1.6-.73 1.46-1.1 2.58-1.1a5.6 5.6 0 0 1 2.27.47l-.37 1.1a3.25 3.25 0 0 0-.82-.31c-.3-.09-.61-.13-.96-.13C15.76 4.93 15 5.95 15 8c0 .4.04.8.11 1.17.09.36.22.69.4.97.2.28.44.5.74.68.31.17.69.25 1.14.25a2.9 2.9 0 0 0 1.78-.58l.4.98Zm6.62-6.35h-2.52V12H22.4V5.12h-2.5V4h6.3v1.12Zm6.26 2.14.05-.99h-.05L31.8 7.3 28.2 12h-.73V4h1.28v4.88l-.05.94h.06l.63-.99L32.99 4h.75v8h-1.28V7.26Zm8.64 1.2h-3.62V12H36.2V4h1.28v3.34h3.62V4h1.28v8H41.1V8.46Zm8.73-1.2.05-.99h-.05l-.65 1.03-3.6 4.7h-.74V4h1.28v4.88l-.05.94h.07l.62-.99L50.36 4h.75v8h-1.28V7.26Zm10.93 6.77h-.86L59.66 12h-6.08V4h1.28v6.88h3.47V4h1.28v6.88h1.15v3.15Zm2.86-3.15c.4.06.77.1 1.14.1.67 0 1.14-.13 1.4-.39.27-.26.4-.64.4-1.12 0-.42-.13-.78-.4-1.05-.25-.28-.7-.42-1.35-.42-.19 0-.38 0-.6.02-.21 0-.4.04-.59.1v2.76Zm0-3.82c.26-.05.5-.07.74-.08.23-.03.46-.04.67-.04.54 0 1 .07 1.36.2.37.11.67.28.9.5.22.2.37.46.46.76.1.29.14.6.14.93 0 .97-.27 1.67-.81 2.11-.54.44-1.4.66-2.61.66-.68 0-1.4-.04-2.13-.1V4h1.28v3.06ZM69.16 4h1.28v8h-1.28V4Z"/></svg>